<?xml version="1.0" encoding="UTF-8"?>
<svg width="512" height="512" version="1.1" viewBox="0 0 135.47 135.47" xml:space="preserve" xmlns="http://www.w3.org/2000/svg"><g transform="scale(5.6444)" fill="currentColor"><path d="m14.25 4.25h-1.25v-3.25c0-0.552-0.448-1-1-1s-1 0.448-1 1v3.25h-1.25c-0.666 0-1.001 0.809-0.53 1.28l2.25 2.25c0.146 0.147 0.338 0.22 0.53 0.22s0.384-0.073 0.53-0.22l2.25-2.25c0.471-0.471 0.136-1.28-0.53-1.28z"/><path d="m15 12h-6c-1.103 0-2-0.897-2-2v-1c0-0.552 0.448-1 1-1s1 0.448 1 1v1h6v-1c0-0.552 0.448-1 1-1s1 0.448 1 1v1c0 1.103-0.897 2-2 2z"/><path d="m22.25 4h-5.442c0.257 0.658 0.247 1.368 0 2h5.192v11h-20v-11h5.192c-0.248-0.632-0.258-1.342 0-2h-5.442c-0.965 0-1.75 0.785-1.75 1.75v13.5c0 0.965 0.785 1.75 1.75 1.75h7.658c-0.118 0.501-0.429 1.314-1.262 2.146-0.143 0.143-0.186 0.358-0.108 0.545 0.077 0.187 0.26 0.309 0.462 0.309h7c0.202 0 0.385-0.122 0.462-0.309s0.034-0.402-0.108-0.545c-0.831-0.831-1.151-1.644-1.275-2.146h7.671c0.965 0 1.75-0.785 1.75-1.75v-13.5c0-0.965-0.785-1.75-1.75-1.75z"/></g></svg>
