<?xml version="1.0" encoding="UTF-8"?>
<svg width="512" height="512" version="1.1" viewBox="0 0 512 512" xml:space="preserve" xmlns="http://www.w3.org/2000/svg"><path d="m402.24 246.65h-77.645c3.6668 9.3882 3.5241 19.518 0 28.535h74.078v156.94h-285.35v-156.94h74.078c-3.5384-9.0172-3.6811-19.147 0-28.535h-77.645c-13.768 0-24.968 11.2-24.968 24.968v192.61c0 13.768 11.2 24.969 24.968 24.969h109.26c-1.6836 7.1481-6.1208 18.748-18.006 30.619-2.0403 2.0403-2.6538 5.1078-1.5409 7.7759 1.0986 2.6681 3.7096 4.4087 6.5917 4.4087h99.874c2.8821 0 5.4931-1.7407 6.5917-4.4087 1.0986-2.6681 0.48511-5.7356-1.5409-7.7759-11.856-11.856-16.422-23.456-18.191-30.619h109.45c13.768 0 24.968-11.2 24.968-24.969v-192.61c0-13.768-11.2-24.968-24.968-24.968zm-94.916 162.62h-102.66c-18.872 0-34.219-15.347-34.219-34.219v-17.109c0-9.4444 7.665-17.109 17.109-17.109s17.109 7.665 17.109 17.109v17.109h102.66v-17.109c0-9.4444 7.665-17.109 17.109-17.109s17.109 7.665 17.109 17.109v17.109c0 18.872-15.347 34.219-34.219 34.219zm-12.832-132.6h-21.387v-55.605c0-9.4444-7.665-17.109-17.109-17.109-9.4443 0-17.109 7.665-17.109 17.109v55.605h-21.387c-11.395 0-17.126 13.841-9.0679 21.9l38.496 38.496c2.498 2.5151 5.783 3.7641 9.0679 3.7641s6.57-1.249 9.068-3.7641l38.496-38.496c8.0585-8.0585 2.3269-21.9-9.068-21.9zm-38.496-231c-15.732 0-28.541 12.809-28.541 28.541 0 18.586 21.622 46.145 24.077 49.238 1.096 1.3471 2.7285 2.1348 4.4638 2.1348s3.3678-0.78772 4.4638-2.1463c2.4545-3.0824 24.077-30.641 24.077-49.227 0-15.732-12.798-28.541-28.541-28.541zm0 39.957c-6.3018 0-11.416-5.1145-11.416-11.416 0-6.3018 5.1145-11.416 11.416-11.416s11.416 5.1145 11.416 11.416c0 6.3018-5.1145 11.416-11.416 11.416zm51.373-85.622h-102.75c-6.2904 0-11.416 5.1259-11.416 11.416v159.83c0 6.3018 5.1259 11.416 11.416 11.416h102.75c6.3018 0 11.416-5.1145 11.416-11.416v-159.83c0-6.2904-5.1145-11.416-11.416-11.416zm0 148.41h-102.75v-125.58h102.75z" fill="currentColor" stroke-width="14.268"/></svg>
