<?xml version="1.0" encoding="UTF-8"?>
<svg width="512" height="512" version="1.1" viewBox="0 0 512 512" xml:space="preserve" xmlns="http://www.w3.org/2000/svg"><g transform="translate(0,-3)" fill="currentColor"><path d="m384 256c-70.688 0-128 57.312-128 128s57.312 128 128 128 128-57.312 128-128-57.312-128-128-128zm48 144h-32v32c0 8.832-7.168 16-16 16s-16-7.168-16-16v-32h-32c-8.832 0-16-7.168-16-16s7.168-16 16-16h32v-32c0-8.832 7.168-16 16-16s16 7.168 16 16v32h32c8.832 0 16 7.168 16 16s-7.168 16-16 16z"/><path transform="translate(0,-10)" d="m256 16c-79.392 0-144 64.608-144 144 0 90.444 75.299 178.21 112.86 216.34a158.85 158.85 0 0 1 157.99-142.34 158.85 158.85 0 0 1 2.043 0.0137c9.258-23.784 15.111-48.795 15.111-74.014 0-79.392-64.608-144-144-144zm0 80c35.36 0 64 28.64 64 64s-28.64 64-64 64-64-28.64-64-64 28.64-64 64-64zm-172.61 29.824c-49.088 22.976-83.393 72.48-83.393 130.18 0 117.92 128 231.3 133.47 236.03 3.008 2.656 6.7513 3.9688 10.527 3.9688s7.5193-1.3128 10.527-3.9688c2.688-2.336 35.265-31.23 67.553-73.982-9.888-8.896-50.048-46.369-85.248-98.785-31.936-3.616-56.832-30.368-56.832-63.264 0-12.384 3.681-23.872 9.793-33.664-5.984-20.256-9.793-41.12-9.793-62.336 0-11.68 1.2166-23.104 3.3926-34.176zm345.21 0c2.176 11.072 3.3926 22.496 3.3926 34.176 0 21.216-3.809 42.08-9.793 62.336 3.598 5.7643 6.3536 12.116 8.0117 18.893a158.85 158.85 0 0 1 77.465 53.396c2.7662-12.728 4.3164-25.649 4.3164-38.625 0-57.696-34.305-107.2-83.393-130.18z"/></g></svg>
