<?xml version="1.0" encoding="UTF-8" standalone="no"?>
<svg
   height="48px"
   viewBox="0 -960 960 960"
   width="48px"
   fill="currentColor"
   version="1.1"
   id="svg1"
   sodipodi:docname="mobile_arrow_up.svg"
   inkscape:version="1.4 (e7c3feb1, 2024-10-09)"
   xmlns:inkscape="http://www.inkscape.org/namespaces/inkscape"
   xmlns:sodipodi="http://sodipodi.sourceforge.net/DTD/sodipodi-0.dtd"
   xmlns="http://www.w3.org/2000/svg"
   xmlns:svg="http://www.w3.org/2000/svg">
  <defs
     id="defs1" />
  <sodipodi:namedview
     id="namedview1"
     pagecolor="#ffffff"
     bordercolor="#000000"
     borderopacity="0.25"
     inkscape:showpageshadow="2"
     inkscape:pageopacity="0.0"
     inkscape:pagecheckerboard="0"
     inkscape:deskcolor="#d1d1d1"
     inkscape:zoom="7.0833333"
     inkscape:cx="24"
     inkscape:cy="24"
     inkscape:window-width="1440"
     inkscape:window-height="847"
     inkscape:window-x="0"
     inkscape:window-y="25"
     inkscape:window-maximized="0"
     inkscape:current-layer="svg1" />
  <path
     d="m 260,-40 c -16.5,0 -30.62333,-5.876667 -42.37,-17.63 C 205.87667,-69.376667 200,-83.5 200,-100 v -760 c 0,-16 6,-30 18,-42 12,-12 26,-18 42,-18 h 438 c 16.5,0 30.62667,5.87333 42.38,17.62 11.74667,11.75333 17.62,25.88 17.62,42.38 v 150 c 12,2 22,7.65 30,16.95 8,9.30667 12,19.85 12,31.63 V -587 c 0,12.66667 -4,23.66667 -12,33 -8,9.33333 -18,15 -30,17 v 437 c 0,16.5 -5.87333,30.623333 -17.62,42.37 C 728.62667,-45.876667 714.5,-40 698,-40 Z m 0,-60 H 698 V -860 H 260 Z m 0,0 v -760 z m 220,-528 155,155 -43,43 -82,-82 v 194 h -60 v -194 l -82,82 -43,-43 z"
     id="path1"
     sodipodi:nodetypes="scssssscsccssscsssscccccccccccccccccc" />
</svg>
