<?xml version="1.0" encoding="UTF-8" standalone="no"?>
<svg
   height="48px"
   viewBox="0 -960 960 960"
   width="48px"
   fill="currentColor"
   version="1.1"
   id="svg1"
   sodipodi:docname="remove_location.svg"
   inkscape:version="1.4 (e7c3feb1, 2024-10-09)"
   xmlns:inkscape="http://www.inkscape.org/namespaces/inkscape"
   xmlns:sodipodi="http://sodipodi.sourceforge.net/DTD/sodipodi-0.dtd"
   xmlns="http://www.w3.org/2000/svg"
   xmlns:svg="http://www.w3.org/2000/svg">
  <defs
     id="defs1" />
  <sodipodi:namedview
     id="namedview1"
     pagecolor="#ffffff"
     bordercolor="#000000"
     borderopacity="0.25"
     inkscape:showpageshadow="2"
     inkscape:pageopacity="0.0"
     inkscape:pagecheckerboard="0"
     inkscape:deskcolor="#d1d1d1"
     inkscape:zoom="10.229167"
     inkscape:cx="24"
     inkscape:cy="24.04888"
     inkscape:window-width="1440"
     inkscape:window-height="847"
     inkscape:window-x="0"
     inkscape:window-y="25"
     inkscape:window-maximized="0"
     inkscape:current-layer="svg1" />
  <path
     d="m 510,-530 h 120 v -60 H 510 450 330 v 60 h 120 z m -30,371 C 568.66667,-239.66667 634.16667,-312.83333 676.5,-378.5 718.83333,-444.16667 740,-502 740,-552 740,-630.52667 714.90333,-694.82667 664.71,-744.9 614.51667,-794.96667 552.94667,-820 480,-820 c -72.94667,0 -134.51667,25.03333 -184.71,75.1 -50.19333,50.07333 -75.29,114.37333 -75.29,192.9 0,50 21.66667,107.83333 65,173.5 43.33333,65.66667 108.33333,138.83333 195,219.5 z m 0,79 C 372.66667,-171.33333 292.5,-256.16667 239.5,-334.5 186.5,-412.83333 160,-485.33333 160,-552 c 0,-100 32.16667,-179.66667 96.5,-239 64.33333,-59.33333 138.83333,-89 223.5,-89 84.66667,0 159.16667,29.66667 223.5,89 64.33333,59.33333 96.5,139 96.5,239 0,66.66667 -26.5,139.16667 -79.5,217.5 -53,78.33333 -133.16667,163.16667 -240.5,254.5 z"
     id="path1"
     sodipodi:nodetypes="ccccccccccsscscssccsssssssc" />
</svg>
