<?xml version="1.0" encoding="UTF-8"?>
<svg width="512" height="512" version="1.1" viewBox="0 0 512 512" xml:space="preserve" xmlns="http://www.w3.org/2000/svg"><g fill="currentColor"><path d="m217.5 268.11h21.387v55.605c0 9.4444 7.665 17.109 17.109 17.109 9.4443 0 17.109-7.665 17.109-17.109v-55.605h21.387c11.395 0 17.126-13.841 9.0679-21.9l-38.496-38.496c-2.498-2.5151-5.783-3.7641-9.0679-3.7641s-6.57 1.249-9.068 3.7641l-38.496 38.496c-8.0585 8.0585-2.3269 21.9 9.068 21.9z" stroke-width="17.109"/><path d="m307.33 409.26h-102.66c-18.872 0-34.219-15.347-34.219-34.219v-17.109c0-9.4444 7.665-17.109 17.109-17.109s17.109 7.665 17.109 17.109v17.109h102.66v-17.109c0-9.4444 7.665-17.109 17.109-17.109s17.109 7.665 17.109 17.109v17.109c0 18.872-15.347 34.219-34.219 34.219z" stroke-width="17.109"/><path d="m402.24 246.65h-77.645c3.6668 9.3882 3.5241 19.518 0 28.535h74.078v156.94h-285.35v-156.94h74.078c-3.5384-9.0172-3.6811-19.147 0-28.535h-77.645c-13.768 0-24.968 11.2-24.968 24.968v192.61c0 13.768 11.2 24.969 24.968 24.969h109.26c-1.6836 7.1481-6.1208 18.748-18.006 30.619-2.0403 2.0403-2.6538 5.1078-1.5409 7.7759 1.0986 2.6681 3.7096 4.4087 6.5917 4.4087h99.874c2.8821 0 5.4931-1.7407 6.5917-4.4087 1.0986-2.6681 0.48511-5.7356-1.5409-7.7759-11.856-11.856-16.422-23.456-18.191-30.619h109.45c13.768 0 24.968-11.2 24.968-24.969v-192.61c0-13.768-11.2-24.968-24.968-24.968z" stroke-width="14.268"/><g transform="matrix(.35676 0 0 .35676 164.67 0)"><g fill="currentColor">
	<g fill="currentColor">
		<path d="m400 0h-288c-17.632 0-32 14.368-32 32v448c0 17.664 14.368 32 32 32h288c17.664 0 32-14.336 32-32v-448c0-17.632-14.336-32-32-32zm0 416h-288v-352h288z"/>
	

	
		<path d="m256 128c-44.096 0-80 35.904-80 80 0 52.096 60.608 129.34 67.488 138.02 3.072 3.776 7.648 5.984 12.512 5.984s9.44-2.208 12.512-6.016c6.88-8.64 67.488-85.888 67.488-137.98 0-44.096-35.872-80-80-80zm0 112c-17.664 0-32-14.336-32-32s14.336-32 32-32 32 14.336 32 32-14.336 32-32 32z"/>
	</g>
</g></g></g></svg>
