<?xml version="1.0" encoding="UTF-8"?>
<svg width="512" height="512" version="1.1" viewBox="0 0 135.47 135.47" xml:space="preserve" xmlns="http://www.w3.org/2000/svg"><g transform="scale(5.6444)" fill="currentColor"><path d="m12.735 15.795-4.5-4.25c-0.15-0.141-0.235-0.338-0.235-0.545s0.085-0.404 0.235-0.545l4.5-4.25c0.476-0.448 1.265-0.114 1.265 0.545v2.25h5.25c1.241 0 2.25-1.009 2.25-2.25 0-0.414 0.336-0.75 0.75-0.75s0.75 0.336 0.75 0.75v1.5c0 2.619-2.131 4.75-4.75 4.75h-4.25v2.25c0 0.659-0.789 0.993-1.265 0.545z"/><path d="m16 15c0 0.953-0.223 1.728-1 2.369v2.631h-12v-17c0-0.552 0.449-1 1-1h10c0.551 0 1 0.448 1 1v1.632c0.783 0.647 1 1.419 1 2.368h1v-4c0-1.654-1.346-3-3-3h-10c-1.654 0-3 1.346-3 3v18c0 1.654 1.346 3 3 3h10c1.654 0 3-1.346 3-3v-6z"/></g></svg>
