<svg id="bold" enable-background="new 0 0 24 24" height="512" viewBox="0 0 24 24" width="512" xmlns="http://www.w3.org/2000/svg"><path d="m12.735 15.795-4.5-4.25c-.15-.141-.235-.338-.235-.545s.085-.404.235-.545l4.5-4.25c.476-.448 1.265-.114 1.265.545v2.25h5.25c1.241 0 2.25-1.009 2.25-2.25 0-.414.336-.75.75-.75s.75.336.75.75v1.5c0 2.619-2.131 4.75-4.75 4.75h-4.25v2.25c0 .659-.789.993-1.265.545z"/><path d="m16 15c0 .953-.223 1.728-1 2.369v2.631h-12v-17c0-.552.449-1 1-1h10c.551 0 1 .448 1 1v1.632c.783.647 1 1.419 1 2.368h1v-4c0-1.654-1.346-3-3-3h-10c-1.654 0-3 1.346-3 3v18c0 1.654 1.346 3 3 3h10c1.654 0 3-1.346 3-3v-6z"/></svg>