<?xml version="1.0" encoding="UTF-8" standalone="no"?>
<!-- Created with Inkscape (http://www.inkscape.org/) -->

<svg
   width="512"
   height="512"
   viewBox="0 0 135.46666 135.46667"
   version="1.1"
   id="svg1"
   inkscape:version="1.4.2 (ebf0e940, 2025-05-08)"
   sodipodi:docname="bla.svg"
   xmlns:inkscape="http://www.inkscape.org/namespaces/inkscape"
   xmlns:sodipodi="http://sodipodi.sourceforge.net/DTD/sodipodi-0.dtd"
   xmlns="http://www.w3.org/2000/svg"
   xmlns:svg="http://www.w3.org/2000/svg">
  <sodipodi:namedview
     id="namedview1"
     pagecolor="#ffffff"
     bordercolor="#000000"
     borderopacity="0.25"
     inkscape:showpageshadow="2"
     inkscape:pageopacity="0.0"
     inkscape:pagecheckerboard="0"
     inkscape:deskcolor="#d1d1d1"
     inkscape:document-units="mm"
     inkscape:zoom="0.62092452"
     inkscape:cx="78.914583"
     inkscape:cy="245.60151"
     inkscape:window-width="1512"
     inkscape:window-height="916"
     inkscape:window-x="0"
     inkscape:window-y="38"
     inkscape:window-maximized="1"
     inkscape:current-layer="svg1" />
  <defs
     id="defs1" />
  <path
     d="M 48.432109,0.00128009 C 21.828832,0.00128009 0,21.762715 0,48.306052 0,58.511909 3.2471125,68.016219 8.723338,75.833138 l 31.387622,54.265812 0.135168,0.17459 c 1.238121,1.6175 2.448441,2.89187 3.868221,3.83117 1.419833,0.93931 3.181987,1.5041 4.91071,1.33084 3.457339,-0.34663 5.573851,-2.78783 7.582944,-5.51125 l 0.105988,-0.14285 22.375841,-38.076025 10.459009,18.078895 0.132102,0.17459 c 1.003156,1.31051 2.000443,2.36993 3.217368,3.175 1.216873,0.80501 2.78559,1.31593 4.328561,1.16152 3.085988,-0.30874 4.855878,-2.42836 6.474358,-4.62228 l 0.10342,-0.14283 27.25741,-46.383864 0.0204,-0.04101 c 0.65802,-1.19025 1.13786,-2.387957 1.54517,-3.548041 1.8193,-4.466673 2.83895,-9.348877 2.83895,-14.446171 0,-21.252457 -17.47711,-38.6766054 -38.774796,-38.6766054 -6.416809,0 -12.500304,1.5865777 -17.851487,4.3761974 C 70.508172,4.0642885 59.918047,0 48.431753,0 Z m 0,6.77331911 c 10.406383,0 19.945016,3.8637898 27.265413,10.2128668 l 0.497145,0.446975 c 3.854048,3.451631 7.058255,7.606748 9.419191,12.252819 l 0.471042,0.925999 c 2.561133,5.376332 4.000528,11.374639 4.000528,17.69264 0,4.746677 -0.819515,9.300641 -2.31246,13.557186 l -0.0026,0.01026 c -0.239102,0.680909 -0.488443,1.344711 -0.751406,1.987011 l -0.03588,0.08445 -0.03076,0.08445 c -0.436738,1.256037 -0.915507,2.411611 -1.479017,3.434275 L 51.101213,125.95991 c -1.587256,2.11357 -2.745761,2.73759 -2.754312,2.73841 -0.0044,4.7e-4 -0.0256,0.0732 -0.500225,-0.24064 -0.457217,-0.30259 -1.236227,-1.0498 -2.145747,-2.2172 L 14.464082,72.239325 14.374125,72.112337 C 9.5873696,65.346913 6.7699803,57.152294 6.7699803,48.307946 6.7699803,25.475158 25.514924,6.7764931 48.42873,6.7764931 Z m 48.260125,6.4346318 c 17.608656,0 32.001476,14.360305 32.001476,31.903287 0,4.222086 -0.83999,8.245978 -2.3548,11.945876 l -0.0359,0.08449 -0.0308,0.08449 c -0.33332,0.958562 -0.69571,1.827268 -1.1113,2.582319 L 98.17872,105.73055 c -0.9214,1.19929 -1.540665,1.61211 -1.590129,1.71446 -0.268793,-0.18789 -0.803893,-0.69658 -1.449927,-1.51868 L 83.031311,84.992592 91.3736,70.795099 l 0.0205,-0.03588 c 0.74332,-1.344609 1.294695,-2.705441 1.77536,-4.042835 1.172741,0.192508 2.291969,0.537133 3.521593,0.537133 12.265767,0 22.190657,-9.894762 22.190657,-22.140259 0,-12.245447 -9.92489,-22.137546 -22.190657,-22.137546 -2.268673,0 -4.40218,0.446462 -6.453214,1.076833 -1.691337,-2.878655 -3.664498,-5.574477 -5.89492,-8.038005 3.835454,-1.646891 7.921069,-2.804568 12.348134,-2.804568 z m -48.260125,7.839555 c -15.123089,0 -27.326238,12.16194 -27.326238,27.257266 0,15.095278 12.20443,27.249274 27.326238,27.249274 15.121809,0 27.320964,-12.154867 27.320964,-27.249274 0,-15.094456 -12.197874,-27.257266 -27.320964,-27.257266 z m 0,6.770656 c 11.540462,0 20.547597,8.993441 20.547597,20.48661 0,11.493123 -9.005853,20.478623 -20.547597,20.478623 -11.54174,0 -20.552863,-8.986372 -20.552863,-20.478623 0,-11.492299 9.012402,-20.48661 20.552863,-20.48661 z m 48.260125,1.926135 c 8.684156,0 15.417346,6.722169 15.417346,15.366941 0,8.644772 -6.73319,15.369603 -15.417346,15.369603 -0.476155,0 -0.944377,-0.02563 -1.407589,-0.06855 1.018264,-3.873979 1.574303,-7.930023 1.574303,-12.107259 0,-6.421371 -1.287839,-12.558328 -3.601015,-18.179446 1.100505,-0.248831 2.24749,-0.380925 3.434301,-0.380925 z"
     style="color:#000000;font-style:normal;font-variant:normal;font-weight:normal;font-stretch:normal;font-size:medium;line-height:normal;font-family:sans-serif;font-variant-ligatures:normal;font-variant-position:normal;font-variant-caps:normal;font-variant-numeric:normal;font-variant-alternates:normal;font-variant-east-asian:normal;font-feature-settings:normal;font-variation-settings:normal;text-indent:0;text-align:start;text-decoration:none;text-decoration-line:none;text-decoration-style:solid;text-decoration-color:#000000;letter-spacing:normal;word-spacing:normal;text-transform:none;writing-mode:lr-tb;direction:ltr;text-orientation:mixed;dominant-baseline:auto;baseline-shift:baseline;text-anchor:start;white-space:normal;shape-padding:0;shape-margin:0;inline-size:0;clip-rule:nonzero;display:inline;overflow:visible;visibility:visible;isolation:auto;mix-blend-mode:normal;color-interpolation:sRGB;color-interpolation-filters:linearRGB;solid-color:#000000;solid-opacity:1;vector-effect:none;fill:currentColor;fill-opacity:1;fill-rule:nonzero;stroke:none;stroke-width:6.7733;stroke-linecap:butt;stroke-linejoin:miter;stroke-miterlimit:4;stroke-dasharray:none;stroke-dashoffset:0;stroke-opacity:1;color-rendering:auto;image-rendering:auto;shape-rendering:auto;text-rendering:auto;enable-background:accumulate;stop-color:#000000"
     id="path834"
     inkscape:label="path834" />
</svg>
