<?xml version="1.0" encoding="UTF-8" standalone="no"?>
<!-- Created with Inkscape (http://www.inkscape.org/) -->

<svg
   width="512"
   height="512"
   viewBox="0 0 135.46667 135.46667"
   version="1.1"
   id="svg1"
   xml:space="preserve"
   inkscape:version="1.4.2 (ebf0e940, 2025-05-08)"
   sodipodi:docname="download.svg"
   xmlns:inkscape="http://www.inkscape.org/namespaces/inkscape"
   xmlns:sodipodi="http://sodipodi.sourceforge.net/DTD/sodipodi-0.dtd"
   xmlns="http://www.w3.org/2000/svg"
   xmlns:svg="http://www.w3.org/2000/svg"><sodipodi:namedview
     id="namedview1"
     pagecolor="#ffffff"
     bordercolor="#000000"
     borderopacity="0.25"
     inkscape:showpageshadow="2"
     inkscape:pageopacity="0.0"
     inkscape:pagecheckerboard="0"
     inkscape:deskcolor="#d1d1d1"
     inkscape:document-units="mm"
     showgrid="false"
     inkscape:zoom="0.60310746"
     inkscape:cx="260.31845"
     inkscape:cy="226.32782"
     inkscape:window-width="1496"
     inkscape:window-height="896"
     inkscape:window-x="0"
     inkscape:window-y="38"
     inkscape:window-maximized="1"
     inkscape:current-layer="layer1" /><defs
     id="defs1" /><g
     inkscape:label="Layer 1"
     inkscape:groupmode="layer"
     id="layer1"><g
       id="g1"
       transform="scale(5.6444444)"
       style="fill:#03a9f4;fill-opacity:1"><path
         d="M 14.25,4.25 H 13 V 1 C 13,0.448 12.552,0 12,0 11.448,0 11,0.448 11,1 V 4.25 H 9.75 c -0.666,0 -1.001,0.809 -0.53,1.28 l 2.25,2.25 C 11.616,7.927 11.808,8 12,8 12.192,8 12.384,7.927 12.53,7.78 L 14.78,5.53 C 15.251,5.059 14.916,4.25 14.25,4.25 Z"
         id="path1"
         style="fill:#03a9f4;fill-opacity:1" /><path
         d="M 15,12 H 9 C 7.897,12 7,11.103 7,10 V 9 C 7,8.448 7.448,8 8,8 8.552,8 9,8.448 9,9 v 1 h 6 V 9 c 0,-0.552 0.448,-1 1,-1 0.552,0 1,0.448 1,1 v 1 c 0,1.103 -0.897,2 -2,2 z"
         id="path2"
         style="fill:#03a9f4;fill-opacity:1" /><path
         d="m 22.25,4 h -5.442 c 0.257,0.658 0.247,1.368 0,2 H 22 V 17 H 2 V 6 H 7.192 C 6.944,5.368 6.934,4.658 7.192,4 H 1.75 C 0.785,4 0,4.785 0,5.75 v 13.5 C 0,20.215 0.785,21 1.75,21 H 9.408 C 9.29,21.501 8.979,22.314 8.146,23.146 8.003,23.289 7.96,23.504 8.038,23.691 8.115,23.878 8.298,24 8.5,24 h 7 c 0.202,0 0.385,-0.122 0.462,-0.309 0.077,-0.187 0.034,-0.402 -0.108,-0.545 C 15.023,22.315 14.703,21.502 14.579,21 H 22.25 C 23.215,21 24,20.215 24,19.25 V 5.75 C 24,4.785 23.215,4 22.25,4 Z"
         id="path3"
         style="fill:#03a9f4;fill-opacity:1" /></g></g></svg>
