<?xml version="1.0" encoding="UTF-8" standalone="no"?>
<!-- Created with Inkscape (http://www.inkscape.org/) -->

<svg
   width="512"
   height="512"
   viewBox="0 0 512 512"
   version="1.1"
   id="svg1"
   xml:space="preserve"
   inkscape:version="1.4.2 (ebf0e940, 2025-05-08)"
   sodipodi:docname="import_locations.svg"
   xmlns:inkscape="http://www.inkscape.org/namespaces/inkscape"
   xmlns:sodipodi="http://sodipodi.sourceforge.net/DTD/sodipodi-0.dtd"
   xmlns="http://www.w3.org/2000/svg"
   xmlns:svg="http://www.w3.org/2000/svg"><sodipodi:namedview
     id="namedview1"
     pagecolor="#ffffff"
     bordercolor="#000000"
     borderopacity="0.25"
     inkscape:showpageshadow="2"
     inkscape:pageopacity="0.0"
     inkscape:pagecheckerboard="0"
     inkscape:deskcolor="#d1d1d1"
     inkscape:document-units="px"
     inkscape:zoom="0.87011003"
     inkscape:cx="263.1851"
     inkscape:cy="369.4935"
     inkscape:window-width="1512"
     inkscape:window-height="916"
     inkscape:window-x="0"
     inkscape:window-y="38"
     inkscape:window-maximized="1"
     inkscape:current-layer="svg1" /><defs
     id="defs1" /><path
     d="m 384,256 c -70.688,0 -128,57.312 -128,128 0,70.688 57.312,128 128,128 70.688,0 128,-57.312 128,-128 0,-70.688 -57.312,-128 -128,-128 z m 48,144 h -32 v 32 c 0,8.832 -7.168,16 -16,16 -8.832,0 -16,-7.168 -16,-16 v -32 h -32 c -8.832,0 -16,-7.168 -16,-16 0,-8.832 7.168,-16 16,-16 h 32 v -32 c 0,-8.832 7.168,-16 16,-16 8.832,0 16,7.168 16,16 v 32 h 32 c 8.832,0 16,7.168 16,16 0,8.832 -7.168,16 -16,16 z"
     id="path2"
     style="fill:#03a9f4;fill-opacity:1" /><path
     id="path4"
     style="display:inline;fill:#03a9f4;fill-opacity:1"
     d="M 256 16 C 176.608 16 112 80.608 112 160 C 112 250.44359 187.29943 338.21298 224.85938 376.3418 A 158.84518 158.84518 0 0 1 382.8457 234 A 158.84518 158.84518 0 0 1 384.88867 234.01367 C 394.14666 210.22925 400 185.21829 400 160 C 400 80.608 335.392 16 256 16 z M 256 96 C 291.36 96 320 124.64 320 160 C 320 195.36 291.36 224 256 224 C 220.64 224 192 195.36 192 160 C 192 124.64 220.64 96 256 96 z M 83.392578 125.82422 C 34.304578 148.80022 -9.4739031e-15 198.304 0 256 C 0 373.92 128.00066 487.29525 133.47266 492.03125 C 136.48066 494.68725 140.224 496 144 496 C 147.776 496 151.51934 494.68725 154.52734 492.03125 C 157.21534 489.69525 189.79208 460.80083 222.08008 418.04883 C 212.19208 409.15283 172.03203 371.67967 136.83203 319.26367 C 104.89603 315.64767 80 288.896 80 256 C 80 243.616 83.680969 232.12794 89.792969 222.33594 C 83.808969 202.07994 80 181.216 80 160 C 80 148.32 81.216578 136.89622 83.392578 125.82422 z M 428.60742 125.82422 C 430.78342 136.89622 432 148.32 432 160 C 432 181.216 428.19103 202.07994 422.20703 222.33594 C 425.80498 228.1002 428.56064 234.45199 430.21875 241.22852 A 158.84518 158.84518 0 0 1 507.68359 294.625 C 510.44983 281.8974 512 268.97639 512 256 C 512 198.304 477.69542 148.80022 428.60742 125.82422 z "
     transform="translate(0,-10)" /></svg>
