<?xml version="1.0" encoding="UTF-8" standalone="no"?>
<svg
   version="1.1"
   width="100"
   height="100"
   id="svg4460"
   xmlns="http://www.w3.org/2000/svg"
   xmlns:svg="http://www.w3.org/2000/svg"
   xmlns:rdf="http://www.w3.org/1999/02/22-rdf-syntax-ns#"
   xmlns:cc="http://creativecommons.org/ns#"
   xmlns:dc="http://purl.org/dc/elements/1.1/">

   <path
      id="path4135-0"
      style="fill-opacity:1;stroke-width:4.26;stroke-dasharray:none"
      fill="#03a9f4"
      d="M 50.00153,-4.155138e-6 C 30.76318,-4.155138e-6 15,15.718146 15,34.901539 c 0,7.43278 2.37357,14.339959 6.39169,20.019026 l 24.33853,42.073163 c 3.40849,4.452812 5.67492,3.607152 8.50902,-0.23458 L 81.08311,51.07579 c 0.54231,-0.980988 0.96722,-2.025615 1.33822,-3.092271 C 84.07825,43.936629 85.00001,39.521949 85,34.901539 85,15.718146 69.23988,-4.155138e-6 50.00153,-4.155138e-6 Z m 0,16.354000155138 c 10.3593,0 18.59762,8.21783 18.59762,18.547543 0,10.3297 -8.23832,18.544484 -18.59762,18.544484 -10.3593,0 -18.60067,-8.214784 -18.60067,-18.544484 0,-10.329713 8.24137,-18.547543 18.60067,-18.547543 z" />
</svg>