<?xml version="1.0" encoding="UTF-8" standalone="no"?>
<!-- Created with Inkscape (http://www.inkscape.org/) -->

<svg
   width="512"
   height="512"
   viewBox="0 0 512 512"
   version="1.1"
   id="svg1"
   xml:space="preserve"
   xmlns="http://www.w3.org/2000/svg"
   xmlns:svg="http://www.w3.org/2000/svg"><defs
     id="defs1" /><g
     id="layer1"><path
       d="M 477.09081,209.45512 H 302.54488 V 34.909189 C 302.54488,15.639248 286.90562,0 267.63569,0 H 244.36431 C 225.09438,0 209.45512,15.639248 209.45512,34.909189 V 209.45512 H 34.90919 C 15.639246,209.45512 0,225.09438 0,244.36431 v 23.27138 c 0,19.26993 15.639246,34.90919 34.90919,34.90919 h 174.54593 v 174.54593 c 0,19.26995 15.63926,34.90919 34.90919,34.90919 h 23.27138 c 19.26993,0 34.90919,-15.63924 34.90919,-34.90919 V 302.54488 H 477.09081 C 496.36076,302.54488 512,286.90562 512,267.63569 v -23.27138 c 0,-19.26993 -15.63924,-34.90919 -34.90919,-34.90919 z m 0,0"
       id="path1-7"
       style="stroke-width:1.09091;fill:#03a9f4;fill-opacity:1" /></g></svg>
