<?xml version="1.0" encoding="UTF-8" standalone="no"?>
<!-- Created with Inkscape (http://www.inkscape.org/) -->

<svg
   width="512"
   height="512"
   viewBox="0 0 512 512"
   version="1.1"
   id="svg1"
   xml:space="preserve"
   xmlns="http://www.w3.org/2000/svg"
   xmlns:svg="http://www.w3.org/2000/svg"><defs
     id="defs1" /><g
     id="layer1"><g
       id="g7"
       transform="matrix(21.333333,0,0,21.333333,4e-6,4e-6)"
       style="fill:#03a9f4;fill-opacity:1"><path
         d="M 9.75,3.75 H 11 V 7 c 0,0.552 0.448,1 1,1 0.552,0 1,-0.448 1,-1 V 3.75 h 1.25 c 0.666,0 1.001,-0.809 0.53,-1.28 L 12.53,0.22 C 12.384,0.073 12.192,0 12,0 11.808,0 11.616,0.073 11.47,0.22 L 9.22,2.47 C 8.749,2.941 9.084,3.75 9.75,3.75 Z"
         id="path1"
         style="fill:#03a9f4;fill-opacity:1" /><path
         d="M 15,12 H 9 C 7.897,12 7,11.103 7,10 V 9 C 7,8.448 7.448,8 8,8 8.552,8 9,8.448 9,9 v 1 h 6 V 9 c 0,-0.552 0.448,-1 1,-1 0.552,0 1,0.448 1,1 v 1 c 0,1.103 -0.897,2 -2,2 z"
         id="path2"
         style="fill:#03a9f4;fill-opacity:1" /><path
         d="M 22.25,4 H 16.808 C 16.801,4.018 16.798,4.036 16.79,4.053 16.462,4.845 15.797,5.422 15,5.646 V 6 h 7 V 17 H 2 V 6 H 9 V 5.646 C 8.203,5.422 7.538,4.845 7.209,4.053 7.202,4.036 7.199,4.018 7.192,4 H 1.75 C 0.785,4 0,4.785 0,5.75 v 13.5 C 0,20.215 0.785,21 1.75,21 H 9.408 C 9.29,21.501 8.979,22.314 8.146,23.146 7.833,23.46 8.055,24 8.5,24 h 7 c 0.445,0 0.668,-0.538 0.354,-0.854 C 15.023,22.315 14.703,21.502 14.579,21 H 22.25 C 23.215,21 24,20.215 24,19.25 V 5.75 C 24,4.785 23.215,4 22.25,4 Z"
         id="path3"
         style="fill:#03a9f4;fill-opacity:1" /></g></g></svg>
