<?xml version="1.0" encoding="UTF-8" standalone="no"?>
<!-- Created with Inkscape (http://www.inkscape.org/) -->

<svg
   width="512"
   height="512"
   viewBox="0 0 135.46666 135.46667"
   version="1.1"
   id="svg1"
   xml:space="preserve"
   inkscape:version="1.4.2 (ebf0e940, 2025-05-08)"
   sodipodi:docname="upload_device.svg"
   xmlns:inkscape="http://www.inkscape.org/namespaces/inkscape"
   xmlns:sodipodi="http://sodipodi.sourceforge.net/DTD/sodipodi-0.dtd"
   xmlns="http://www.w3.org/2000/svg"
   xmlns:svg="http://www.w3.org/2000/svg"><sodipodi:namedview
     id="namedview1"
     pagecolor="#ffffff"
     bordercolor="#000000"
     borderopacity="0.25"
     inkscape:showpageshadow="2"
     inkscape:pageopacity="0.0"
     inkscape:pagecheckerboard="0"
     inkscape:deskcolor="#d1d1d1"
     inkscape:document-units="mm"
     inkscape:zoom="0.94771979"
     inkscape:cx="268.01171"
     inkscape:cy="257.98765"
     inkscape:window-width="1512"
     inkscape:window-height="916"
     inkscape:window-x="0"
     inkscape:window-y="38"
     inkscape:window-maximized="0"
     inkscape:current-layer="layer1" /><defs
     id="defs1" /><g
     inkscape:label="Layer 1"
     inkscape:groupmode="layer"
     id="layer1"><g
       id="g21"
       transform="scale(5.6444444)"
       style="fill:#03a9f4;fill-opacity:1"><path
         d="m 12.735,15.795 -4.5,-4.25 C 8.085,11.404 8,11.207 8,11 8,10.793 8.085,10.596 8.235,10.455 l 4.5,-4.25 C 13.211,5.757 14,6.091 14,6.75 V 9 h 5.25 C 20.491,9 21.5,7.991 21.5,6.75 21.5,6.336 21.836,6 22.25,6 22.664,6 23,6.336 23,6.75 v 1.5 C 23,10.869 20.869,13 18.25,13 H 14 v 2.25 c 0,0.659 -0.789,0.993 -1.265,0.545 z"
         id="path1"
         style="fill:#03a9f4;fill-opacity:1" /><path
         d="m 16,15 c 0,0.953 -0.223,1.728 -1,2.369 V 20 H 3 V 3 C 3,2.448 3.449,2 4,2 h 10 c 0.551,0 1,0.448 1,1 V 4.632 C 15.783,5.279 16,6.051 16,7 h 1 V 3 C 17,1.346 15.654,0 14,0 H 4 C 2.346,0 1,1.346 1,3 v 18 c 0,1.654 1.346,3 3,3 h 10 c 1.654,0 3,-1.346 3,-3 v -6 z"
         id="path2"
         style="fill:#03a9f4;fill-opacity:1" /></g></g></svg>
