<?xml version="1.0" encoding="UTF-8" standalone="no"?>
<svg
   viewBox="0 0 512 512"
   version="1.1"
   id="svg1"
   sodipodi:docname="replace.svg"
   width="512"
   height="512"
   inkscape:version="1.4 (e7c3feb1, 2024-10-09)"
   xmlns:inkscape="http://www.inkscape.org/namespaces/inkscape"
   xmlns:sodipodi="http://sodipodi.sourceforge.net/DTD/sodipodi-0.dtd"
   xmlns="http://www.w3.org/2000/svg"
   xmlns:svg="http://www.w3.org/2000/svg">
  <defs
     id="defs1" />
  <sodipodi:namedview
     id="namedview1"
     pagecolor="#ffffff"
     bordercolor="#000000"
     borderopacity="0.25"
     inkscape:showpageshadow="2"
     inkscape:pageopacity="0.0"
     inkscape:pagecheckerboard="0"
     inkscape:deskcolor="#d1d1d1"
     inkscape:zoom="1.2265625"
     inkscape:cx="192.40764"
     inkscape:cy="256"
     inkscape:window-width="1104"
     inkscape:window-height="245"
     inkscape:window-x="0"
     inkscape:window-y="25"
     inkscape:window-maximized="0"
     inkscape:current-layer="svg1" />
  <!--!Font Awesome Free 6.7.2 by @fontawesome - https://fontawesome.com License - https://fontawesome.com/license/free Copyright 2025 Fonticons, Inc.-->
  <path
     d="M 128,0 C 92.7,0 64,28.7 64,64 v 384 c 0,35.3 28.7,64 64,64 h 256 c 35.3,0 64,-28.7 64,-64 V 160 H 320 c -17.7,0 -32,-14.3 -32,-32 V 0 Z m 192,0 v 128 h 128 z m -40,408 c 0,13.3 -10.7,24 -24,24 -13.3,0 -24,-10.7 -24,-24 V 305.9 l -31,31 c -9.4,9.4 -24.6,9.4 -33.9,0 -9.3,-9.4 -9.4,-24.6 0,-33.9 l 72,-72 c 9.4,-9.4 24.6,-9.4 33.9,0 l 72,72 c 9.4,9.4 9.4,24.6 0,33.9 -9.4,9.3 -24.6,9.4 -33.9,0 l -31,-31 z"
     id="path1"
     fill="currentColor" />
</svg>
